<?xml version="1.0" encoding="utf-8"?>
<!-- Generator: Adobe Illustrator 22.0.1, SVG Export Plug-In . SVG Version: 6.00 Build 0)  -->
<svg version="1.1" id="Camada_1" xmlns="http://www.w3.org/2000/svg" xmlns:xlink="http://www.w3.org/1999/xlink" x="0px" y="0px"
	 viewBox="0 0 778.6 167.9" style="enable-background:new 0 0 778.6 167.9;" xml:space="preserve">
<style type="text/css">
	.st0{fill:#FFFFFF;stroke:#FFFFFF;stroke-miterlimit:10;}
	.st1{fill:#FFFFFF;stroke:#FFFFFF;stroke-width:18;stroke-miterlimit:10;}
</style>
<g>
	<path class="st0" d="M39.8,89.2c3.4-0.4,5.9-1,7.3-1.6c2.6-1.1,4-2.9,4-5.2c0-2.9-1-4.9-3-6s-5-1.6-8.9-1.6c-4.4,0-7.5,1.1-9.4,3.2
		c-1.3,1.6-2.2,3.7-2.6,6.5H9.4c0.4-6.2,2.1-11.2,5.2-15.2c4.9-6.2,13.3-9.3,25.2-9.3c7.7,0,14.6,1.5,20.6,4.6s9,8.8,9,17.3v32.3
		c0,2.2,0,5,0.1,8.1c0.1,2.4,0.5,4,1.1,4.9s1.5,1.6,2.7,2.1v2.7h-20c-0.6-1.4-0.9-2.8-1.2-4c-0.2-1.2-0.4-2.7-0.5-4.3
		c-2.6,2.8-5.5,5.1-8.8,7c-4,2.3-8.5,3.4-13.5,3.4c-6.4,0-11.7-1.8-15.9-5.5c-4.2-3.6-6.3-8.8-6.3-15.5c0-8.7,3.4-14.9,10.1-18.8
		c3.7-2.1,9.1-3.6,16.3-4.5L39.8,89.2z M51,97.8c-1.2,0.7-2.4,1.3-3.6,1.8c-1.2,0.5-2.8,0.9-4.9,1.3l-4.2,0.8
		c-3.9,0.7-6.7,1.5-8.5,2.5c-2.9,1.7-4.3,4.3-4.3,7.8c0,3.1,0.9,5.4,2.7,6.8c1.8,1.4,3.9,2.1,6.5,2.1c4,0,7.7-1.2,11.1-3.5
		s5.1-6.6,5.3-12.7v-6.9H51z"/>
	<path class="st0" d="M103.8,61.7v42.4c0,4,0.5,7,1.4,9c1.7,3.6,4.9,5.4,9.8,5.4c6.3,0,10.5-2.5,12.8-7.6c1.2-2.8,1.8-6.4,1.8-10.9
		V61.7h18.7V132h-17.9v-9.9c-0.2,0.2-0.6,0.9-1.3,1.9c-0.7,1.1-1.5,2-2.4,2.8c-2.9,2.6-5.7,4.3-8.3,5.3c-2.7,0.9-5.8,1.4-9.4,1.4
		c-10.4,0-17.4-3.7-21-11.2c-2-4.1-3-10.2-3-18.3V61.7H103.8z"/>
	<path class="st0" d="M180.5,109.6c0.4,3.3,1.2,5.6,2.5,7c2.3,2.5,6.5,3.7,12.7,3.7c3.6,0,6.5-0.5,8.7-1.6c2.1-1.1,3.2-2.7,3.2-4.8
		c0-2.1-0.9-3.6-2.6-4.7c-1.7-1.1-8.1-2.9-19.3-5.6c-8-2-13.6-4.5-16.9-7.4c-3.3-2.9-4.9-7.1-4.9-12.7c0-6.5,2.6-12.1,7.7-16.8
		c5.1-4.7,12.3-7,21.6-7c8.8,0,16,1.8,21.5,5.3s8.7,9.6,9.5,18.2h-18.4c-0.3-2.4-0.9-4.2-2-5.6c-2-2.5-5.5-3.7-10.4-3.7
		c-4,0-6.9,0.6-8.6,1.9c-1.7,1.2-2.6,2.7-2.6,4.4c0,2.1,0.9,3.6,2.7,4.6s8.2,2.7,19.2,5.1c7.3,1.7,12.8,4.3,16.5,7.8
		c3.6,3.5,5.4,7.9,5.4,13.2c0,7-2.6,12.7-7.8,17.1c-5.2,4.4-13.2,6.6-24.1,6.6c-11.1,0-19.3-2.3-24.6-7c-5.3-4.7-7.9-10.6-7.9-17.9
		h18.9V109.6z"/>
	<path class="st0" d="M232.5,75.4V62.3h9.8V42.7h18.2v19.6H272v13.1h-11.4v37.2c0,2.9,0.4,4.7,1.1,5.4c0.7,0.7,3,1.1,6.7,1.1
		c0.6,0,1.2,0,1.8,0c0.6,0,1.2-0.1,1.8-0.1v13.8l-8.7,0.3c-8.7,0.3-14.6-1.2-17.8-4.5c-2.1-2.1-3.1-5.4-3.1-9.8V75.4H232.5z"/>
	<path class="st0" d="M322.9,60c0.2,0,0.8,0.1,1.6,0.1V79c-1.2-0.1-2.2-0.2-3.1-0.3c-0.9,0-1.6-0.1-2.2-0.1
		c-7.4,0-12.4,2.4-14.9,7.2c-1.4,2.7-2.1,6.9-2.1,12.5V132h-18.5V61.7h17.6V74c2.8-4.7,5.3-7.9,7.4-9.6c3.4-2.9,7.9-4.3,13.4-4.3
		C322.4,60,322.7,60,322.9,60z"/>
	<path class="st0" d="M363.1,89.2c3.4-0.4,5.9-1,7.3-1.6c2.6-1.1,4-2.9,4-5.2c0-2.9-1-4.9-3-6s-5-1.6-8.9-1.6
		c-4.4,0-7.5,1.1-9.4,3.2c-1.3,1.6-2.2,3.7-2.6,6.5h-17.8c0.4-6.2,2.1-11.2,5.2-15.2c4.9-6.2,13.3-9.3,25.2-9.3
		c7.7,0,14.6,1.5,20.6,4.6s9,8.8,9,17.3v32.3c0,2.2,0,5,0.1,8.1c0.1,2.4,0.5,4,1.1,4.9s1.5,1.6,2.7,2.1v2.7h-20
		c-0.6-1.4-0.9-2.8-1.2-4c-0.2-1.2-0.4-2.7-0.5-4.3c-2.6,2.8-5.5,5.1-8.8,7c-4,2.3-8.5,3.4-13.5,3.4c-6.4,0-11.7-1.8-15.9-5.5
		c-4.2-3.6-6.3-8.8-6.3-15.5c0-8.7,3.4-14.9,10.1-18.8c3.7-2.1,9.1-3.6,16.3-4.5L363.1,89.2z M374.4,97.8c-1.2,0.7-2.4,1.3-3.6,1.8
		s-2.8,0.9-4.9,1.3l-4.2,0.8c-3.9,0.7-6.7,1.5-8.5,2.5c-2.9,1.7-4.3,4.3-4.3,7.8c0,3.1,0.9,5.4,2.7,6.8c1.8,1.4,3.9,2.1,6.5,2.1
		c4,0,7.7-1.2,11.1-3.5s5.1-6.6,5.3-12.7v-6.9H374.4z"/>
	<path class="st0" d="M427.6,132h-18.4V36.9h18.4V132z"/>
	<path class="st0" d="M464.5,53.3h-18.7v-17h18.7V53.3z M445.8,61.7h18.7V132h-18.7V61.7z"/>
	<path class="st0" d="M510.1,89.2c3.4-0.4,5.9-1,7.3-1.6c2.6-1.1,4-2.9,4-5.2c0-2.9-1-4.9-3-6s-5-1.6-8.9-1.6
		c-4.4,0-7.5,1.1-9.4,3.2c-1.3,1.6-2.2,3.7-2.6,6.5h-17.8c0.4-6.2,2.1-11.2,5.2-15.2c4.9-6.2,13.3-9.3,25.2-9.3
		c7.7,0,14.6,1.5,20.6,4.6s9,8.8,9,17.3v32.3c0,2.2,0,5,0.1,8.1c0.1,2.4,0.5,4,1.1,4.9s1.5,1.6,2.7,2.1v2.7h-20
		c-0.6-1.4-0.9-2.8-1.2-4c-0.2-1.2-0.4-2.7-0.5-4.3c-2.6,2.8-5.5,5.1-8.8,7c-4,2.3-8.5,3.4-13.5,3.4c-6.4,0-11.7-1.8-15.9-5.5
		c-4.2-3.6-6.3-8.8-6.3-15.5c0-8.7,3.4-14.9,10.1-18.8c3.7-2.1,9.1-3.6,16.3-4.5L510.1,89.2z M521.4,97.8c-1.2,0.7-2.4,1.3-3.6,1.8
		c-1.2,0.5-2.8,0.9-4.9,1.3l-4.2,0.8c-3.9,0.7-6.7,1.5-8.5,2.5c-2.9,1.7-4.3,4.3-4.3,7.8c0,3.1,0.9,5.4,2.7,6.8
		c1.8,1.4,3.9,2.1,6.5,2.1c4,0,7.7-1.2,11.1-3.5s5.1-6.6,5.3-12.7L521.4,97.8L521.4,97.8z"/>
	<path class="st0" d="M612.6,65.7c4.6,3.8,6.9,10.1,6.9,18.9V132h-18.9V89.2c0-3.7-0.5-6.5-1.5-8.5c-1.8-3.6-5.2-5.4-10.3-5.4
		c-6.2,0-10.4,2.6-12.8,7.9c-1.2,2.8-1.8,6.4-1.8,10.7V132h-18.4V61.8h17.8v10.3c2.4-3.6,4.6-6.2,6.7-7.8c3.8-2.8,8.6-4.3,14.3-4.3
		C602,60,608,61.9,612.6,65.7z"/>
	<path class="st0" d="M664.5,89.2c3.4-0.4,5.9-1,7.3-1.6c2.6-1.1,4-2.9,4-5.2c0-2.9-1-4.9-3-6s-5-1.6-8.9-1.6
		c-4.4,0-7.5,1.1-9.4,3.2c-1.3,1.6-2.2,3.7-2.6,6.5h-17.8c0.4-6.2,2.1-11.2,5.2-15.2c4.9-6.2,13.3-9.3,25.2-9.3
		c7.7,0,14.6,1.5,20.6,4.6s9,8.8,9,17.3v32.3c0,2.2,0,5,0.1,8.1c0.1,2.4,0.5,4,1.1,4.9s1.5,1.6,2.7,2.1v2.7h-20
		c-0.6-1.4-0.9-2.8-1.2-4c-0.2-1.2-0.4-2.7-0.5-4.3c-2.6,2.8-5.5,5.1-8.8,7c-4,2.3-8.5,3.4-13.5,3.4c-6.4,0-11.7-1.8-15.9-5.5
		c-4.2-3.6-6.3-8.8-6.3-15.5c0-8.7,3.4-14.9,10.1-18.8c3.7-2.1,9.1-3.6,16.3-4.5L664.5,89.2z M675.7,97.8c-1.2,0.7-2.4,1.3-3.6,1.8
		c-1.2,0.5-2.8,0.9-4.9,1.3l-4.2,0.8c-3.9,0.7-6.7,1.5-8.5,2.5c-2.9,1.7-4.3,4.3-4.3,7.8c0,3.1,0.9,5.4,2.7,6.8s3.9,2.1,6.5,2.1
		c4,0,7.7-1.2,11.1-3.5s5.1-6.6,5.3-12.7L675.7,97.8L675.7,97.8z"/>
	<path class="st0" d="M724.4,109.6c0.4,3.3,1.2,5.6,2.5,7c2.3,2.5,6.5,3.7,12.7,3.7c3.6,0,6.5-0.5,8.7-1.6c2.1-1.1,3.2-2.7,3.2-4.8
		c0-2.1-0.9-3.6-2.6-4.7c-1.7-1.1-8.1-2.9-19.3-5.6c-8-2-13.6-4.5-16.9-7.4c-3.3-2.9-4.9-7.1-4.9-12.7c0-6.5,2.6-12.1,7.7-16.8
		c5.1-4.7,12.3-7,21.6-7c8.8,0,16,1.8,21.5,5.3s8.7,9.6,9.5,18.2h-18.4c-0.3-2.4-0.9-4.2-2-5.6c-2-2.5-5.5-3.7-10.4-3.7
		c-4,0-6.9,0.6-8.6,1.9c-1.7,1.2-2.6,2.7-2.6,4.4c0,2.1,0.9,3.6,2.7,4.6s8.2,2.7,19.2,5.1c7.3,1.7,12.8,4.3,16.5,7.8
		c3.6,3.5,5.4,7.9,5.4,13.2c0,7-2.6,12.7-7.8,17.1c-5.2,4.4-13.2,6.6-24.1,6.6c-11.1,0-19.3-2.3-24.6-7c-5.3-4.7-7.9-10.6-7.9-17.9
		h18.9V109.6z"/>
</g>
<line class="st1" x1="3.3" y1="155.7" x2="775" y2="155.7"/>
<line class="st1" x1="3.3" y1="12" x2="775" y2="12"/>
</svg>
